<?xml version="1.0" encoding="UTF-8" standalone="no"?>
<!DOCTYPE svg PUBLIC "-//W3C//DTD SVG 1.1//EN"
 "http://www.w3.org/Graphics/SVG/1.1/DTD/svg11.dtd">
<!-- Generated by graphviz version 2.43.0 (0)
 -->
<!-- Title: G Pages: 1 -->
<svg width="600pt" height="125pt"
 viewBox="0.00 0.00 600.00 125.00" xmlns="http://www.w3.org/2000/svg" xmlns:xlink="http://www.w3.org/1999/xlink">
<g id="graph0" class="graph" transform="scale(1 1) rotate(0) translate(4 121)">
<title>G</title>
<polygon fill="white" stroke="transparent" points="-4,4 -4,-121 596,-121 596,4 -4,4"/>
<!-- aws_eip.lb -->
<g id="node1" class="node">
<title>aws_eip.lb</title>
<polygon fill="none" stroke="black" points="153,-90 64,-90 64,-54 153,-54 153,-90"/>
<text text-anchor="middle" x="108.5" y="-68.3" font-family="sans-serif" font-size="14.00">aws_eip.lb</text>
</g>
<!-- aws_instance.web -->
<g id="node2" class="node">
<title>aws_instance.web</title>
<polygon fill="none" stroke="black" points="493.5,-117 351.5,-117 351.5,-81 493.5,-81 493.5,-117"/>
<text text-anchor="middle" x="422.5" y="-95.3" font-family="sans-serif" font-size="14.00">aws_instance.web</text>
</g>
<!-- aws_security_group.example -->
<g id="node3" class="node">
<title>aws_security_group.example</title>
<polygon fill="none" stroke="black" points="217,-36 0,-36 0,0 217,0 217,-36"/>
<text text-anchor="middle" x="108.5" y="-14.3" font-family="sans-serif" font-size="14.00">aws_security_group.example</text>
</g>
<!-- aws_vpc_security_group_ingress_rule.example -->
<g id="node4" class="node">
<title>aws_vpc_security_group_ingress_rule.example</title>
<polygon fill="none" stroke="black" points="592,-63 253,-63 253,-27 592,-27 592,-63"/>
<text text-anchor="middle" x="422.5" y="-41.3" font-family="sans-serif" font-size="14.00">aws_vpc_security_group_ingress_rule.example</text>
</g>
<!-- aws_vpc_security_group_ingress_rule.example&#45;&gt;aws_eip.lb -->
<g id="edge1" class="edge">
<title>aws_vpc_security_group_ingress_rule.example&#45;&gt;aws_eip.lb</title>
<path fill="none" stroke="black" d="M252.72,-59.61C220.28,-62.41 188.59,-65.16 163.3,-67.34"/>
<polygon fill="black" stroke="black" points="162.89,-63.87 153.23,-68.22 163.49,-70.84 162.89,-63.87"/>
</g>
<!-- aws_vpc_security_group_ingress_rule.example&#45;&gt;aws_security_group.example -->
<g id="edge2" class="edge">
<title>aws_vpc_security_group_ingress_rule.example&#45;&gt;aws_security_group.example</title>
<path fill="none" stroke="black" d="M252.72,-30.39C244.14,-29.65 235.62,-28.91 227.25,-28.19"/>
<polygon fill="black" stroke="black" points="227.4,-24.69 217.13,-27.31 226.79,-31.66 227.4,-24.69"/>
</g>
</g>
</svg>
