<?xml version="1.0" encoding="UTF-8" standalone="no"?>
<!DOCTYPE svg PUBLIC "-//W3C//DTD SVG 1.1//EN"
 "http://www.w3.org/Graphics/SVG/1.1/DTD/svg11.dtd">
<!-- Generated by graphviz version 2.43.0 (0)
 -->
<!-- Title: G Pages: 1 -->
<svg width="601pt" height="327pt"
 viewBox="0.00 0.00 601.00 327.00" xmlns="http://www.w3.org/2000/svg" xmlns:xlink="http://www.w3.org/1999/xlink">
<g id="graph0" class="graph" transform="scale(1 1) rotate(0) translate(4 323)">
<title>G</title>
<polygon fill="white" stroke="transparent" points="-4,4 -4,-323 597,-323 597,4 -4,4"/>
<!-- aws_iam_user.userProof -->
<g id="node1" class="node">
<title>aws_iam_user.userProof</title>
<polygon fill="none" stroke="black" points="199,-36 17,-36 17,0 199,0 199,-36"/>
<text text-anchor="middle" x="108" y="-14.3" font-family="sans-serif" font-size="14.00">aws_iam_user.userProof</text>
</g>
<!-- aws_iam_user_policy.lb_ro -->
<g id="node2" class="node">
<title>aws_iam_user_policy.lb_ro</title>
<polygon fill="none" stroke="black" points="520.5,-36 324.5,-36 324.5,0 520.5,0 520.5,-36"/>
<text text-anchor="middle" x="422.5" y="-14.3" font-family="sans-serif" font-size="14.00">aws_iam_user_policy.lb_ro</text>
</g>
<!-- aws_iam_user_policy.lb_ro&#45;&gt;aws_iam_user.userProof -->
<g id="edge1" class="edge">
<title>aws_iam_user_policy.lb_ro&#45;&gt;aws_iam_user.userProof</title>
<path fill="none" stroke="black" d="M324.34,-18C287.81,-18 246.24,-18 209.43,-18"/>
<polygon fill="black" stroke="black" points="209.18,-14.5 199.18,-18 209.18,-21.5 209.18,-14.5"/>
</g>
<!-- aws_instance.administrative_ec2 -->
<g id="node3" class="node">
<title>aws_instance.administrative_ec2</title>
<polygon fill="none" stroke="black" points="545,-157 300,-157 300,-121 545,-121 545,-157"/>
<text text-anchor="middle" x="422.5" y="-135.3" font-family="sans-serif" font-size="14.00">aws_instance.administrative_ec2</text>
</g>
<!-- aws_subnet.my_subnets -->
<g id="node6" class="node">
<title>aws_subnet.my_subnets</title>
<polygon fill="none" stroke="black" points="201.5,-117 14.5,-117 14.5,-81 201.5,-81 201.5,-117"/>
<text text-anchor="middle" x="108" y="-95.3" font-family="sans-serif" font-size="14.00">aws_subnet.my_subnets</text>
</g>
<!-- aws_instance.administrative_ec2&#45;&gt;aws_subnet.my_subnets -->
<g id="edge2" class="edge">
<title>aws_instance.administrative_ec2&#45;&gt;aws_subnet.my_subnets</title>
<path fill="none" stroke="black" d="M299.78,-123.42C270.78,-119.71 240.11,-115.78 212.04,-112.19"/>
<polygon fill="black" stroke="black" points="212.19,-108.68 201.83,-110.88 211.3,-115.62 212.19,-108.68"/>
</g>
<!-- aws_instance.developer_ec2 -->
<g id="node4" class="node">
<title>aws_instance.developer_ec2</title>
<polygon fill="none" stroke="black" points="529.5,-103 315.5,-103 315.5,-67 529.5,-67 529.5,-103"/>
<text text-anchor="middle" x="422.5" y="-81.3" font-family="sans-serif" font-size="14.00">aws_instance.developer_ec2</text>
</g>
<!-- aws_instance.developer_ec2&#45;&gt;aws_subnet.my_subnets -->
<g id="edge3" class="edge">
<title>aws_instance.developer_ec2&#45;&gt;aws_subnet.my_subnets</title>
<path fill="none" stroke="black" d="M315.27,-89.76C281.83,-91.26 244.98,-92.91 211.79,-94.39"/>
<polygon fill="black" stroke="black" points="211.45,-90.91 201.62,-94.85 211.76,-97.9 211.45,-90.91"/>
</g>
<!-- aws_security_group.allow_tls -->
<g id="node5" class="node">
<title>aws_security_group.allow_tls</title>
<polygon fill="none" stroke="black" points="216,-265 0,-265 0,-229 216,-229 216,-265"/>
<text text-anchor="middle" x="108" y="-243.3" font-family="sans-serif" font-size="14.00">aws_security_group.allow_tls</text>
</g>
<!-- aws_vpc_security_group_ingress_rule.app_port -->
<g id="node7" class="node">
<title>aws_vpc_security_group_ingress_rule.app_port</title>
<polygon fill="none" stroke="black" points="593,-319 252,-319 252,-283 593,-283 593,-319"/>
<text text-anchor="middle" x="422.5" y="-297.3" font-family="sans-serif" font-size="14.00">aws_vpc_security_group_ingress_rule.app_port</text>
</g>
<!-- aws_vpc_security_group_ingress_rule.app_port&#45;&gt;aws_security_group.allow_tls -->
<g id="edge4" class="edge">
<title>aws_vpc_security_group_ingress_rule.app_port&#45;&gt;aws_security_group.allow_tls</title>
<path fill="none" stroke="black" d="M305.63,-283C287.66,-280.07 269.32,-277.01 252,-274 239.21,-271.77 225.79,-269.35 212.51,-266.91"/>
<polygon fill="black" stroke="black" points="212.86,-263.41 202.39,-265.03 211.59,-270.29 212.86,-263.41"/>
</g>
<!-- aws_vpc_security_group_ingress_rule.ftp_port -->
<g id="node8" class="node">
<title>aws_vpc_security_group_ingress_rule.ftp_port</title>
<polygon fill="none" stroke="black" points="589.5,-265 255.5,-265 255.5,-229 589.5,-229 589.5,-265"/>
<text text-anchor="middle" x="422.5" y="-243.3" font-family="sans-serif" font-size="14.00">aws_vpc_security_group_ingress_rule.ftp_port</text>
</g>
<!-- aws_vpc_security_group_ingress_rule.ftp_port&#45;&gt;aws_security_group.allow_tls -->
<g id="edge5" class="edge">
<title>aws_vpc_security_group_ingress_rule.ftp_port&#45;&gt;aws_security_group.allow_tls</title>
<path fill="none" stroke="black" d="M255.19,-247C245.44,-247 235.76,-247 226.27,-247"/>
<polygon fill="black" stroke="black" points="226.07,-243.5 216.07,-247 226.07,-250.5 226.07,-243.5"/>
</g>
<!-- aws_vpc_security_group_ingress_rule.ssh_port -->
<g id="node9" class="node">
<title>aws_vpc_security_group_ingress_rule.ssh_port</title>
<polygon fill="none" stroke="black" points="592,-211 253,-211 253,-175 592,-175 592,-211"/>
<text text-anchor="middle" x="422.5" y="-189.3" font-family="sans-serif" font-size="14.00">aws_vpc_security_group_ingress_rule.ssh_port</text>
</g>
<!-- aws_vpc_security_group_ingress_rule.ssh_port&#45;&gt;aws_security_group.allow_tls -->
<g id="edge6" class="edge">
<title>aws_vpc_security_group_ingress_rule.ssh_port&#45;&gt;aws_security_group.allow_tls</title>
<path fill="none" stroke="black" d="M305.63,-211C287.66,-213.93 269.32,-216.99 252,-220 239.21,-222.23 225.79,-224.65 212.51,-227.09"/>
<polygon fill="black" stroke="black" points="211.59,-223.71 202.39,-228.97 212.86,-230.59 211.59,-223.71"/>
</g>
</g>
</svg>
